# xmcd
#
# Track frame offsets:
# 150
# 15299
# 32358
# 48656
# 61024
# 78576
# 90141
# 107330
# 121002
# 137748
# 153466
# 164623
# 176624
# 189882
# 206016
# 222265
# 232306
# 249188
# 267187
# 283764
#
# Disc length: 3964 seconds
#
#
# Revision: 0
# Processed by: cddbd v1.5.2PL0 Copyright (c) Steve Scherf et al.
# Submitted via: FreeRIP 2.40 
#
DISCID=020f7a14
DTITLE=鄧麗君 - 甜蜜蜜甜歌集 DISC 1
DYEAR=1900
DGENRE=Classic Rock
TTITLE0=甜蜜蜜
TTITLE1=我只在乎你
TTITLE2=月亮代表我的心
TTITLE3=酒醉的探戈
TTITLE4=又見炊煙
TTITLE5=但願人長久
TTITLE6=獨上西樓
TTITLE7=再見! 我的愛人
TTITLE8=路邊的野花你不要採
TTITLE9=難忘的初戀情人
TTITLE10=美酒加咖啡
TTITLE11=恰似你的溫柔
TTITLE12=愛的箴言
TTITLE13=你怎麼說
TTITLE14=人約黃昏後
TTITLE15=何日君再來
TTITLE16=小城故事
TTITLE17=一封情書
TTITLE18=南海姑娘
TTITLE19=千言萬語
EXTD=
EXTT0=
EXTT1=
EXTT2=
EXTT3=
EXTT4=
EXTT5=
EXTT6=
EXTT7=
EXTT8=
EXTT9=
EXTT10=
EXTT11=
EXTT12=
EXTT13=
EXTT14=
EXTT15=
EXTT16=
EXTT17=
EXTT18=
EXTT19=
PLAYORDER=
